<?xml version="1.0" encoding="UTF-8"?>
<svg width="56px" height="56px" viewBox="0 0 56 56" version="1.1" xmlns="http://www.w3.org/2000/svg" xmlns:xlink="http://www.w3.org/1999/xlink">
    <title>Symbol-only - Large - Dark@1x</title>
    <g id="Page-1" stroke="none" stroke-width="1" fill="none" fill-rule="evenodd">
        <g id="Symbol-only---Large---Dark">
            <rect id="Bezel" fill="#FFFFFF" x="0" y="0" width="56" height="56" rx="28"></rect>
            <path d="M34.3706844,13.5 C37.4666005,13.5 40,15.9348805 40,18.9109765 L40,18.9109765 L40,35.5890235 C40,38.5651195 37.4666005,41 34.3706844,41 L34.3706844,41 L21.1287228,41 C18.0328067,41 15.5,38.5651195 15.5,35.5890235 L15.5,35.5890235 L15.5,18.9109765 C15.5,15.9348805 18.0328067,13.5 21.1287228,13.5 L21.1287228,13.5 Z M34.2898465,15.2 L21.2095679,15.2 C18.9986847,15.2 17.2,16.9072315 17.2,19.0055699 L17.2,19.0055699 L17.2,35.4944301 C17.2,37.5927685 18.9986847,39.3 21.2095679,39.3 L21.2095679,39.3 L34.2898465,39.3 C36.5007298,39.3 38.3,37.5927685 38.3,35.4944301 L38.3,35.4944301 L38.3,19.0055699 C38.3,16.9072315 36.5007298,15.2 34.2898465,15.2 L34.2898465,15.2 Z M27.7437538,19 C32.26836,19 36,22.7297005 36,27.2532706 C36,31.7756514 32.2743087,35.5 27.7497026,35.5 C23.2250964,35.5 19.5,31.7756514 19.5,27.2532706 C19.5,22.7297005 23.2185528,19 27.7437538,19 Z M27.7466752,21.5 C27.2576275,21.5 26.8828319,21.833272 26.8828319,22.3219902 L26.8828319,28.6662547 L26.9747173,30.5709252 L26.0830666,29.48764 L24.8444279,28.191448 C24.717481,28.042655 24.4980442,27.9434597 24.2713534,27.9434597 C23.8179717,27.9434597 23.5,28.2694735 23.5,28.7085941 C23.5,28.9426708 23.5707275,29.1120286 23.7266908,29.2819913 L27.0599531,32.6885026 C27.2648816,32.9008047 27.4843183,33 27.7466752,33 C28.0150772,33 28.2345139,32.8935465 28.4400469,32.6885026 L31.766055,29.2819913 C31.9220183,29.1120286 32,28.9426708 32,28.7085941 C32,28.2694735 31.6741697,27.9434597 31.2213925,27.9434597 C30.9947017,27.9434597 30.7897731,28.0360017 30.648318,28.191448 L29.423583,29.4737285 L28.5174241,30.5781833 L28.6099139,28.6662547 L28.6099139,22.3219902 C28.6099139,21.833272 28.241768,21.5 27.7466752,21.5 Z M41.7801036,18 C42.176953,18 42.5,18.334987 42.5,18.748242 L42.5,23.751758 C42.5,24.165013 42.176953,24.5 41.7801036,24.5 L41.0705654,24.5 L41.0705654,22.2847028 C41.0647389,20.7569117 41.0608546,20.1270109 41.0504963,19.4845872 C41.0420803,18.9986995 41.0304273,18.5015413 41,18.0050092 C41.0246008,18.0018784 41.0492016,18 41.0738023,18 L41.7801036,18 Z" id="Glyph" fill="#000000"></path>
        </g>
    </g>
</svg>