<?xml version="1.0" encoding="UTF-8"?>
<svg width="45px" height="45px" viewBox="0 0 45 45" version="1.1" xmlns="http://www.w3.org/2000/svg" xmlns:xlink="http://www.w3.org/1999/xlink">
    <title>Symbol-only - Small - Light@1x</title>
    <g id="Page-1" stroke="none" stroke-width="1" fill="none" fill-rule="evenodd">
        <g id="Symbol-only---Small---Light">
            <rect id="Bezel" fill="#000000" x="0" y="0" width="45" height="45" rx="22.5"></rect>
            <path d="M27.5195244,11 C29.9836208,11 32,12.9479044 32,15.3287812 L32,15.3287812 L32,28.6712188 C32,31.0520956 29.9836208,33 27.5195244,33 L27.5195244,33 L16.9800039,33 C14.5159074,33 12.5,31.0520956 12.5,28.6712188 L12.5,28.6712188 L12.5,15.3287812 C12.5,12.9479044 14.5159074,11 16.9800039,11 L16.9800039,11 Z M27.5153714,12.2493944 L16.9787651,12.2493944 C15.197824,12.2493944 13.7489227,13.63085 13.7489227,15.3287812 L13.7489227,15.3287812 L13.7489227,28.6712188 C13.7489227,30.36915 15.197824,31.7506056 16.9787651,31.7506056 L16.9787651,31.7506056 L27.5153714,31.7506056 C29.2963126,31.7506056 30.7456855,30.36915 30.7456855,28.6712188 L30.7456855,28.6712188 L30.7456855,15.3287812 C30.7456855,13.63085 29.2963126,12.2493944 27.5153714,12.2493944 L27.5153714,12.2493944 Z M22.242399,15.4520227 C25.8297502,15.4520227 28.7883953,18.4101962 28.7883953,21.9980191 C28.7883953,25.5848987 25.8344667,28.5388273 22.2471154,28.5388273 C18.6597642,28.5388273 15.7063072,25.5848987 15.7063072,21.9980191 C15.7063072,18.4101962 18.6545761,15.4520227 22.242399,15.4520227 Z M22.2474184,17.4 C21.8676872,17.4 21.5766695,17.6608215 21.5766695,18.0432967 L21.5766695,23.0083732 L21.6480158,24.4989849 L20.9556753,23.6511965 L19.9939087,22.6367854 C19.8953382,22.5203387 19.724952,22.4427076 19.5489332,22.4427076 C19.1968957,22.4427076 18.95,22.6978488 18.95,23.0415084 C18.95,23.2246989 19.0049179,23.3572398 19.1260188,23.490254 L21.7141988,26.1562194 C21.8733198,26.3223689 22.043706,26.4 22.2474184,26.4 C22.4558246,26.4 22.6262108,26.3166886 22.7858012,26.1562194 L25.3683486,23.490254 C25.4894495,23.3572398 25.55,23.2246989 25.55,23.0415084 C25.55,22.6978488 25.2970023,22.4427076 24.9454342,22.4427076 C24.7694154,22.4427076 24.6102944,22.5151318 24.5004587,22.6367854 L23.5494879,23.6403093 L22.8458822,24.5046652 L22.9176979,23.0083732 L22.9176979,18.0432967 C22.9176979,17.6608215 22.6318434,17.4 22.2474184,17.4 Z M33.572076,14.5 C33.8630988,14.5 34.1,14.7576823 34.1,15.0755708 L34.1,18.9244292 C34.1,19.2423177 33.8630988,19.5 33.572076,19.5 L33.0517479,19.5 L33.0517479,17.7959252 C33.0474752,16.6207013 33.0446267,16.1361622 33.0370306,15.6419902 C33.0308589,15.2682304 33.0223133,14.885801 33,14.5038532 C33.0180406,14.5014449 33.0360811,14.5 33.0541217,14.5 L33.572076,14.5 Z" id="Glyph" fill="#FFFFFF"></path>
        </g>
    </g>
</svg>